<?xml version="1.0" standalone="no"?>
<!DOCTYPE svg PUBLIC "-//W3C//DTD SVG 1.1//EN" "http://www.w3.org/Graphics/SVG/1.1/DTD/svg11.dtd">
<svg width="800" height="600" version="1.1" xmlns="http://www.w3.org/2000/svg">
<rect width="800" height="600" x="0" y="0" style="fill:rgb(238,238,238);stroke:none"/>
<rect width="800" height="600" x="0" y="0" style="fill:rgb(255,255,255);stroke:none"/>
<text x="2" y="566" fill="rgb(0,0,0)" font-family="Arial" font-size="12">0</text>
<text x="2" y="508" fill="rgb(0,0,0)" font-family="Arial" font-size="12">2500000</text>
<text x="2" y="450" fill="rgb(0,0,0)" font-family="Arial" font-size="12">5000000</text>
<text x="2" y="392" fill="rgb(0,0,0)" font-family="Arial" font-size="12">7500000</text>
<text x="2" y="334" fill="rgb(0,0,0)" font-family="Arial" font-size="12">1.0E7</text>
<text x="2" y="276" fill="rgb(0,0,0)" font-family="Arial" font-size="12">1.25E7</text>
<text x="2" y="218" fill="rgb(0,0,0)" font-family="Arial" font-size="12">1.5E7</text>
<text x="2" y="160" fill="rgb(0,0,0)" font-family="Arial" font-size="12">1.75E7</text>
<text x="2" y="101" fill="rgb(0,0,0)" font-family="Arial" font-size="12">2.0E7</text>
<text x="262" y="30" fill="rgb(0,0,0)" font-family="Arial" font-size="12">Distribution of sequence lengths over all sequences</text>
<line x1="61" y1="560" x2="790" y2="560" stroke="rgb(0,0,0)" stroke-width="1"/>
<line x1="61" y1="560" x2="61" y2="40" stroke="rgb(0,0,0)" stroke-width="1"/>
<text x="330" y="595" fill="rgb(0,0,0)" font-family="Arial" font-size="12">Sequence Length (bp)</text>
<text x="57" y="575" fill="rgb(0,0,0)" font-family="Arial" font-size="12">15-19</text>
<rect width="28" height="520" x="89" y="40" style="fill:rgb(230,230,230);stroke:none"/>
<text x="113" y="575" fill="rgb(0,0,0)" font-family="Arial" font-size="12">25-29</text>
<rect width="28" height="520" x="145" y="40" style="fill:rgb(230,230,230);stroke:none"/>
<text x="169" y="575" fill="rgb(0,0,0)" font-family="Arial" font-size="12">35-39</text>
<rect width="28" height="520" x="201" y="40" style="fill:rgb(230,230,230);stroke:none"/>
<text x="225" y="575" fill="rgb(0,0,0)" font-family="Arial" font-size="12">45-49</text>
<rect width="28" height="520" x="257" y="40" style="fill:rgb(230,230,230);stroke:none"/>
<text x="281" y="575" fill="rgb(0,0,0)" font-family="Arial" font-size="12">55-59</text>
<rect width="28" height="520" x="313" y="40" style="fill:rgb(230,230,230);stroke:none"/>
<text x="337" y="575" fill="rgb(0,0,0)" font-family="Arial" font-size="12">65-69</text>
<rect width="28" height="520" x="369" y="40" style="fill:rgb(230,230,230);stroke:none"/>
<text x="393" y="575" fill="rgb(0,0,0)" font-family="Arial" font-size="12">75-79</text>
<rect width="28" height="520" x="425" y="40" style="fill:rgb(230,230,230);stroke:none"/>
<text x="449" y="575" fill="rgb(0,0,0)" font-family="Arial" font-size="12">85-89</text>
<rect width="28" height="520" x="481" y="40" style="fill:rgb(230,230,230);stroke:none"/>
<text x="505" y="575" fill="rgb(0,0,0)" font-family="Arial" font-size="12">95-99</text>
<rect width="28" height="520" x="537" y="40" style="fill:rgb(230,230,230);stroke:none"/>
<text x="553" y="575" fill="rgb(0,0,0)" font-family="Arial" font-size="12">105-109</text>
<rect width="28" height="520" x="593" y="40" style="fill:rgb(230,230,230);stroke:none"/>
<rect width="28" height="520" x="649" y="40" style="fill:rgb(230,230,230);stroke:none"/>
<text x="637" y="575" fill="rgb(0,0,0)" font-family="Arial" font-size="12">120-124</text>
<rect width="28" height="520" x="705" y="40" style="fill:rgb(230,230,230);stroke:none"/>
<text x="721" y="575" fill="rgb(0,0,0)" font-family="Arial" font-size="12">135-139</text>
<rect width="28" height="520" x="761" y="40" style="fill:rgb(230,230,230);stroke:none"/>
<line x1="61" y1="560" x2="790" y2="560" stroke="rgb(180,180,180)" stroke-width="1"/>
<line x1="61" y1="502" x2="790" y2="502" stroke="rgb(180,180,180)" stroke-width="1"/>
<line x1="61" y1="444" x2="790" y2="444" stroke="rgb(180,180,180)" stroke-width="1"/>
<line x1="61" y1="386" x2="790" y2="386" stroke="rgb(180,180,180)" stroke-width="1"/>
<line x1="61" y1="328" x2="790" y2="328" stroke="rgb(180,180,180)" stroke-width="1"/>
<line x1="61" y1="270" x2="790" y2="270" stroke="rgb(180,180,180)" stroke-width="1"/>
<line x1="61" y1="212" x2="790" y2="212" stroke="rgb(180,180,180)" stroke-width="1"/>
<line x1="61" y1="154" x2="790" y2="154" stroke="rgb(180,180,180)" stroke-width="1"/>
<line x1="61" y1="95" x2="790" y2="95" stroke="rgb(180,180,180)" stroke-width="1"/>
<line x1="75" y1="560" x2="103" y2="560" stroke="rgb(136,34,85)" stroke-width="1"/>
<line x1="103" y1="560" x2="131" y2="560" stroke="rgb(136,34,85)" stroke-width="1"/>
<line x1="131" y1="560" x2="159" y2="560" stroke="rgb(136,34,85)" stroke-width="1"/>
<line x1="159" y1="560" x2="187" y2="560" stroke="rgb(136,34,85)" stroke-width="1"/>
<line x1="187" y1="560" x2="215" y2="560" stroke="rgb(136,34,85)" stroke-width="1"/>
<line x1="215" y1="560" x2="243" y2="560" stroke="rgb(136,34,85)" stroke-width="1"/>
<line x1="243" y1="560" x2="271" y2="560" stroke="rgb(136,34,85)" stroke-width="1"/>
<line x1="271" y1="560" x2="299" y2="560" stroke="rgb(136,34,85)" stroke-width="1"/>
<line x1="299" y1="560" x2="327" y2="560" stroke="rgb(136,34,85)" stroke-width="1"/>
<line x1="327" y1="560" x2="355" y2="560" stroke="rgb(136,34,85)" stroke-width="1"/>
<line x1="355" y1="560" x2="383" y2="560" stroke="rgb(136,34,85)" stroke-width="1"/>
<line x1="383" y1="560" x2="411" y2="560" stroke="rgb(136,34,85)" stroke-width="1"/>
<line x1="411" y1="560" x2="439" y2="560" stroke="rgb(136,34,85)" stroke-width="1"/>
<line x1="439" y1="560" x2="467" y2="560" stroke="rgb(136,34,85)" stroke-width="1"/>
<line x1="467" y1="560" x2="495" y2="560" stroke="rgb(136,34,85)" stroke-width="1"/>
<line x1="495" y1="560" x2="523" y2="560" stroke="rgb(136,34,85)" stroke-width="1"/>
<line x1="523" y1="560" x2="551" y2="560" stroke="rgb(136,34,85)" stroke-width="1"/>
<line x1="551" y1="560" x2="579" y2="560" stroke="rgb(136,34,85)" stroke-width="1"/>
<line x1="579" y1="560" x2="607" y2="560" stroke="rgb(136,34,85)" stroke-width="1"/>
<line x1="607" y1="560" x2="635" y2="560" stroke="rgb(136,34,85)" stroke-width="1"/>
<line x1="635" y1="560" x2="663" y2="560" stroke="rgb(136,34,85)" stroke-width="1"/>
<line x1="663" y1="560" x2="691" y2="560" stroke="rgb(136,34,85)" stroke-width="1"/>
<line x1="691" y1="560" x2="719" y2="559" stroke="rgb(136,34,85)" stroke-width="1"/>
<line x1="719" y1="559" x2="747" y2="541" stroke="rgb(136,34,85)" stroke-width="1"/>
<line x1="747" y1="541" x2="775" y2="40" stroke="rgb(136,34,85)" stroke-width="1"/>
<rect width="130" height="23" x="660" y="40" style="fill:rgb(255,255,255);stroke:none"/>
<rect width="130" height="23" x="660" y="40" rx="0" ry="0" style="fill:none;stroke-width:1;stroke:rgb(192,192,192)"/>
<text x="663" y="55" fill="rgb(136,34,85)" font-family="Arial" font-size="12" font-weight="bold">Sequence Length</text>
</svg>
