<?xml version="1.0" standalone="no"?>
<!DOCTYPE svg PUBLIC "-//W3C//DTD SVG 1.1//EN" "http://www.w3.org/Graphics/SVG/1.1/DTD/svg11.dtd">
<svg width="800" height="600" version="1.1" xmlns="http://www.w3.org/2000/svg">
<rect width="800" height="600" x="0" y="0" style="fill:rgb(238,238,238);stroke:none"/>
<rect width="800" height="600" x="0" y="0" style="fill:rgb(255,255,255);stroke:none"/>
<text x="2" y="566" fill="rgb(0,0,0)" font-family="Arial" font-size="12">0</text>
<text x="2" y="496" fill="rgb(0,0,0)" font-family="Arial" font-size="12">2000000</text>
<text x="2" y="426" fill="rgb(0,0,0)" font-family="Arial" font-size="12">4000000</text>
<text x="2" y="356" fill="rgb(0,0,0)" font-family="Arial" font-size="12">6000000</text>
<text x="2" y="286" fill="rgb(0,0,0)" font-family="Arial" font-size="12">8000000</text>
<text x="2" y="216" fill="rgb(0,0,0)" font-family="Arial" font-size="12">1.0E7</text>
<text x="2" y="146" fill="rgb(0,0,0)" font-family="Arial" font-size="12">1.2E7</text>
<text x="2" y="76" fill="rgb(0,0,0)" font-family="Arial" font-size="12">1.4E7</text>
<text x="286" y="30" fill="rgb(0,0,0)" font-family="Arial" font-size="12">Quality score distribution over all sequences</text>
<line x1="61" y1="560" x2="790" y2="560" stroke="rgb(0,0,0)" stroke-width="1"/>
<line x1="61" y1="560" x2="61" y2="40" stroke="rgb(0,0,0)" stroke-width="1"/>
<text x="281" y="595" fill="rgb(0,0,0)" font-family="Arial" font-size="12">Mean Sequence Quality (Phred Score)</text>
<text x="74" y="575" fill="rgb(0,0,0)" font-family="Arial" font-size="12">24</text>
<rect width="42" height="520" x="103" y="40" style="fill:rgb(230,230,230);stroke:none"/>
<text x="116" y="575" fill="rgb(0,0,0)" font-family="Arial" font-size="12">25</text>
<text x="158" y="575" fill="rgb(0,0,0)" font-family="Arial" font-size="12">26</text>
<rect width="42" height="520" x="187" y="40" style="fill:rgb(230,230,230);stroke:none"/>
<text x="200" y="575" fill="rgb(0,0,0)" font-family="Arial" font-size="12">27</text>
<text x="242" y="575" fill="rgb(0,0,0)" font-family="Arial" font-size="12">28</text>
<rect width="42" height="520" x="271" y="40" style="fill:rgb(230,230,230);stroke:none"/>
<text x="284" y="575" fill="rgb(0,0,0)" font-family="Arial" font-size="12">29</text>
<text x="326" y="575" fill="rgb(0,0,0)" font-family="Arial" font-size="12">30</text>
<rect width="42" height="520" x="355" y="40" style="fill:rgb(230,230,230);stroke:none"/>
<text x="368" y="575" fill="rgb(0,0,0)" font-family="Arial" font-size="12">31</text>
<text x="410" y="575" fill="rgb(0,0,0)" font-family="Arial" font-size="12">32</text>
<rect width="42" height="520" x="439" y="40" style="fill:rgb(230,230,230);stroke:none"/>
<text x="452" y="575" fill="rgb(0,0,0)" font-family="Arial" font-size="12">33</text>
<text x="494" y="575" fill="rgb(0,0,0)" font-family="Arial" font-size="12">34</text>
<rect width="42" height="520" x="523" y="40" style="fill:rgb(230,230,230);stroke:none"/>
<text x="536" y="575" fill="rgb(0,0,0)" font-family="Arial" font-size="12">35</text>
<text x="578" y="575" fill="rgb(0,0,0)" font-family="Arial" font-size="12">36</text>
<rect width="42" height="520" x="607" y="40" style="fill:rgb(230,230,230);stroke:none"/>
<text x="620" y="575" fill="rgb(0,0,0)" font-family="Arial" font-size="12">37</text>
<text x="662" y="575" fill="rgb(0,0,0)" font-family="Arial" font-size="12">38</text>
<rect width="42" height="520" x="691" y="40" style="fill:rgb(230,230,230);stroke:none"/>
<text x="704" y="575" fill="rgb(0,0,0)" font-family="Arial" font-size="12">39</text>
<text x="746" y="575" fill="rgb(0,0,0)" font-family="Arial" font-size="12">40</text>
<line x1="61" y1="560" x2="790" y2="560" stroke="rgb(180,180,180)" stroke-width="1"/>
<line x1="61" y1="490" x2="790" y2="490" stroke="rgb(180,180,180)" stroke-width="1"/>
<line x1="61" y1="420" x2="790" y2="420" stroke="rgb(180,180,180)" stroke-width="1"/>
<line x1="61" y1="350" x2="790" y2="350" stroke="rgb(180,180,180)" stroke-width="1"/>
<line x1="61" y1="280" x2="790" y2="280" stroke="rgb(180,180,180)" stroke-width="1"/>
<line x1="61" y1="210" x2="790" y2="210" stroke="rgb(180,180,180)" stroke-width="1"/>
<line x1="61" y1="140" x2="790" y2="140" stroke="rgb(180,180,180)" stroke-width="1"/>
<line x1="61" y1="70" x2="790" y2="70" stroke="rgb(180,180,180)" stroke-width="1"/>
<line x1="82" y1="560" x2="124" y2="560" stroke="rgb(136,34,85)" stroke-width="1"/>
<line x1="124" y1="560" x2="166" y2="560" stroke="rgb(136,34,85)" stroke-width="1"/>
<line x1="166" y1="560" x2="208" y2="560" stroke="rgb(136,34,85)" stroke-width="1"/>
<line x1="208" y1="560" x2="250" y2="560" stroke="rgb(136,34,85)" stroke-width="1"/>
<line x1="250" y1="560" x2="292" y2="560" stroke="rgb(136,34,85)" stroke-width="1"/>
<line x1="292" y1="560" x2="334" y2="559" stroke="rgb(136,34,85)" stroke-width="1"/>
<line x1="334" y1="559" x2="376" y2="558" stroke="rgb(136,34,85)" stroke-width="1"/>
<line x1="376" y1="558" x2="418" y2="556" stroke="rgb(136,34,85)" stroke-width="1"/>
<line x1="418" y1="556" x2="460" y2="554" stroke="rgb(136,34,85)" stroke-width="1"/>
<line x1="460" y1="554" x2="502" y2="552" stroke="rgb(136,34,85)" stroke-width="1"/>
<line x1="502" y1="552" x2="544" y2="551" stroke="rgb(136,34,85)" stroke-width="1"/>
<line x1="544" y1="551" x2="586" y2="548" stroke="rgb(136,34,85)" stroke-width="1"/>
<line x1="586" y1="548" x2="628" y2="544" stroke="rgb(136,34,85)" stroke-width="1"/>
<line x1="628" y1="544" x2="670" y2="528" stroke="rgb(136,34,85)" stroke-width="1"/>
<line x1="670" y1="528" x2="712" y2="334" stroke="rgb(136,34,85)" stroke-width="1"/>
<line x1="712" y1="334" x2="754" y2="40" stroke="rgb(136,34,85)" stroke-width="1"/>
<rect width="183" height="23" x="607" y="40" style="fill:rgb(255,255,255);stroke:none"/>
<rect width="183" height="23" x="607" y="40" rx="0" ry="0" style="fill:none;stroke-width:1;stroke:rgb(192,192,192)"/>
<text x="610" y="55" fill="rgb(136,34,85)" font-family="Arial" font-size="12" font-weight="bold">Average Quality per read</text>
</svg>
